<svg width="221" height="56" viewBox="0 0 221 56" fill="none" xmlns="http://www.w3.org/2000/svg">
<g clip-path="url(#clip0_4128_216)">
<path d="M28.3676 21.5445C29.8928 23.5332 31.1575 25.7677 32.1374 28.1765V15.4355H21.3809C23.9682 16.8417 26.3388 18.8988 28.3676 21.5445Z" fill="#EFBE97"/>
<path d="M12.8601 16.793C10.8672 16.793 8.95045 17.2215 7.15527 18.0143V40.5631H31.0381C30.8531 27.4125 22.7697 16.793 12.8601 16.793Z" fill="#EFBE97"/>
<path d="M46.4092 36.6792L59.7534 20.4297H46.8285V16.8872H64.9231V19.8445L51.5786 36.0945H64.9231V39.6367H46.4092V36.6792Z" fill="#EFBE97"/>
<path d="M69.8994 16.8872H86.6372V20.4944H73.8417V26.3442H85.1838V29.9521H73.8417V36.0289H86.7982V39.6364H69.8994V16.8872Z" fill="#EFBE97"/>
<path d="M101.324 28.1641C102.75 28.1641 103.884 27.8226 104.727 27.1367C105.57 26.4508 105.991 25.5205 105.991 24.3457V24.2807C105.991 23.0405 105.58 22.0991 104.758 21.4569C103.938 20.8153 102.782 20.4941 101.291 20.4941H95.4891V28.1641H101.324ZM91.5478 16.8872H101.629C103.051 16.8872 104.311 17.0879 105.41 17.4886C106.507 17.8893 107.423 18.447 108.155 19.1623C108.758 19.7909 109.222 20.5164 109.546 21.3395C109.869 22.1632 110.03 23.0733 110.03 24.0695V24.1345C110.03 25.0663 109.895 25.9058 109.626 26.6533C109.356 27.4011 108.985 28.0619 108.511 28.6357C108.037 29.2098 107.472 29.6976 106.815 30.0976C106.157 30.4993 105.431 30.808 104.634 31.0244L110.741 39.6367H106.055L100.481 31.7066H95.4891V39.6367H91.5469V16.8872H91.5478Z" fill="#EFBE97"/>
<path d="M125.766 36.3539C126.881 36.3539 127.905 36.143 128.838 35.7206C129.771 35.2976 130.57 34.7244 131.235 33.9986C131.899 33.2724 132.42 32.4218 132.796 31.4467C133.171 30.4719 133.359 29.432 133.359 28.3275V28.2621C133.359 27.1573 133.171 26.1118 132.796 25.1256C132.42 24.1399 131.893 23.2846 131.219 22.5585C130.543 21.833 129.733 21.2533 128.789 20.8194C127.845 20.3865 126.816 20.1698 125.7 20.1698C124.585 20.1698 123.561 20.3807 122.629 20.8033C121.695 21.2257 120.896 21.8001 120.231 22.526C119.566 23.2521 119.046 24.1022 118.67 25.077C118.295 26.0521 118.107 27.0919 118.107 28.1968V28.2621C118.107 29.367 118.295 30.4124 118.67 31.3978C119.046 32.3846 119.572 33.2402 120.248 33.9658C120.923 34.6919 121.733 35.2713 122.677 35.7042C123.621 36.1377 124.65 36.3539 125.766 36.3539ZM125.701 40.0264C123.956 40.0264 122.363 39.718 120.919 39.1009C119.476 38.4834 118.237 37.6439 117.203 36.5815C116.169 35.5203 115.362 34.2804 114.78 32.8609C114.198 31.442 113.907 29.9303 113.907 28.3268V28.2618C113.907 26.6584 114.198 25.1476 114.78 23.7281C115.362 22.3092 116.179 21.0628 117.236 19.9902C118.291 18.9178 119.54 18.0675 120.985 17.4392C122.427 16.8112 124.021 16.4966 125.766 16.4966C127.51 16.4966 129.105 16.8053 130.548 17.4228C131.991 18.0402 133.23 18.88 134.264 19.9416C135.297 21.0034 136.105 22.2439 136.687 23.6627C137.269 25.0819 137.56 26.5931 137.56 28.1962V28.2615C137.56 29.8649 137.269 31.3767 136.687 32.7953C136.105 34.2144 135.287 35.4602 134.232 36.5325C133.176 37.6046 131.926 38.4555 130.483 39.0838C129.04 39.7115 127.446 40.0264 125.701 40.0264Z" fill="#EFBE97"/>
<path d="M150.776 36.0292C151.959 36.0292 153.038 35.8394 154.006 35.4585C154.976 35.077 155.8 34.5453 156.478 33.86C157.156 33.1741 157.684 32.3578 158.061 31.4112C158.438 30.4649 158.628 29.4371 158.628 28.327V28.262C158.628 27.1521 158.438 26.1191 158.061 25.1616C157.684 24.2042 157.156 23.3833 156.478 22.698C155.8 22.0118 154.976 21.4736 154.006 21.0819C153.038 20.6901 151.959 20.4941 150.776 20.4941H146.316V36.0289H150.776V36.0292ZM142.374 16.8872H150.808C152.574 16.8872 154.195 17.1746 155.671 17.7487C157.147 18.3225 158.417 19.1189 159.483 20.1371C160.55 21.1556 161.373 22.353 161.955 23.7288C162.537 25.1047 162.828 26.5944 162.828 28.1976V28.2626C162.828 29.8663 162.537 31.3614 161.955 32.7474C161.373 34.1334 160.55 35.3371 159.483 36.3549C158.417 37.374 157.147 38.1751 155.671 38.7598C154.195 39.3447 152.574 39.637 150.808 39.637H142.374V16.8872Z" fill="#EFBE97"/>
<path d="M167.641 16.8872H171.583V26.3445H182.44V16.8872H186.382V39.637H182.44V30.0496H171.583V39.6367H167.641V16.8872Z" fill="#EFBE97"/>
<path d="M205.899 30.6022L201.989 21.5019L198.111 30.6022H205.899ZM200.212 16.7241H203.895L213.847 39.6362H209.647L207.352 34.1441H196.657L194.33 39.6362H190.259L200.212 16.7241Z" fill="#EFBE97"/>
</g>
<defs>
<clipPath id="clip0_4128_216">
<rect width="206.691" height="25.1272" fill="white" transform="translate(7.1543 15.4365)"/>
</clipPath>
</defs>
</svg>
