<svg width="114" height="30" viewBox="0 0 114 30" fill="none" xmlns="http://www.w3.org/2000/svg">
<path d="M12.8113 2.88468C11.5731 2.88468 10.6003 3.52903 9.89274 4.81774C9.18521 6.10645 8.89462 7.69839 9.02097 9.59355V10.8065H13.5694C13.7715 10.8065 13.9484 10.8823 14.1 11.0339C14.2516 11.1855 14.3274 11.3624 14.3274 11.5645V12.2847C14.3274 12.4868 14.2516 12.6637 14.1 12.8153C13.9484 12.9417 13.7715 13.0048 13.5694 13.0048H9.02097V25.3234C9.02097 25.7782 9.18521 26.1825 9.51371 26.5363C9.8422 26.8901 10.1581 27.1933 10.4613 27.446C10.7898 27.6987 10.954 27.9513 10.954 28.204V28.3556C10.954 28.7852 10.7013 29 10.196 29H2.88064C2.35 29 2.08468 28.7852 2.08468 28.3556V28.204C2.08468 27.9513 2.33737 27.5597 2.84274 27.029C3.34812 26.4984 3.60081 25.9298 3.60081 25.3234V13.0048H0.909677C0.379032 13.0048 0.11371 12.7648 0.11371 12.2847V11.5645C0.11371 11.3624 0.189516 11.1855 0.341129 11.0339C0.492742 10.8823 0.682258 10.8065 0.909677 10.8065H3.60081V9.25242C3.60081 6.82661 4.51048 4.88092 6.32984 3.41533C8.14919 1.94973 10.5497 1.21694 13.5315 1.21694C16.0836 1.21694 18.1051 1.76022 19.596 2.84678C21.1121 3.90807 21.8702 5.12097 21.8702 6.48549C21.8702 7.06667 21.668 7.55941 21.2637 7.96371C20.8594 8.34274 20.3414 8.53226 19.7097 8.53226C18.9769 8.53226 18.3452 8.34274 17.8145 7.96371C17.2839 7.55941 16.8543 7.09194 16.5258 6.56129C16.2226 6.00538 15.9194 5.44946 15.6161 4.89355C15.3382 4.33764 14.9591 3.87016 14.479 3.49113C14.0242 3.08683 13.4683 2.88468 12.8113 2.88468ZM23.3863 25.3234C23.3863 25.9298 23.6516 26.4984 24.1823 27.029C24.7129 27.5597 24.9782 27.9513 24.9782 28.204V28.3556C24.9782 28.7852 24.6876 29 24.1065 29H17.0944C16.5132 29 16.2226 28.7852 16.2226 28.3556V28.204C16.2226 27.9513 16.4626 27.5597 16.9427 27.029C17.4481 26.4984 17.7008 25.9298 17.7008 25.3234V16.7573C17.7008 16.1255 17.4481 15.5317 16.9427 14.9758C16.4626 14.4199 16.2226 14.0409 16.2226 13.8387V13.725C16.2226 13.4723 16.4879 13.207 17.0185 12.929L21.8323 10.579C22.3124 10.3769 22.6914 10.3642 22.9694 10.5411C23.2473 10.6927 23.3863 10.9581 23.3863 11.3371V25.3234ZM46.7202 25.3234C46.7707 25.9298 47.0108 26.4984 47.4403 27.029C47.8699 27.5597 48.0847 27.964 48.0847 28.2419V28.3935C48.0847 28.8231 47.7941 29.0379 47.2129 29.0379H40.6556C40.0745 29.0379 39.7839 28.8231 39.7839 28.3935V28.2419C39.7839 27.9892 40.0113 27.5976 40.4661 27.0669C40.9462 26.5363 41.1737 25.9551 41.1484 25.3234L40.7694 18.3113C40.5925 14.4957 39.4933 12.5879 37.4718 12.5879C36.461 12.5879 35.6651 12.9669 35.0839 13.725C34.528 14.4831 34.25 15.4938 34.25 16.7573V25.3613C34.25 25.9677 34.5153 26.5363 35.046 27.0669C35.6019 27.5976 35.8798 27.9892 35.8798 28.2419V28.3935C35.8798 28.8231 35.5892 29.0379 35.0081 29.0379H27.9581C27.3769 29.0379 27.0863 28.8231 27.0863 28.3935V28.2419C27.0863 27.9892 27.3516 27.5976 27.8823 27.0669C28.4382 26.5363 28.7161 25.9677 28.7161 25.3613V16.5298C28.7161 16.1508 28.6151 15.8097 28.4129 15.5065C28.236 15.2032 28.0212 14.9884 27.7686 14.8621C27.5411 14.7105 27.3263 14.5336 27.1242 14.3315C26.9473 14.1293 26.8589 13.9272 26.8589 13.725V13.5734C26.8589 13.2954 27.1116 13.0301 27.6169 12.7774L32.1274 10.579C32.557 10.3769 32.8729 10.3642 33.075 10.5411C33.3024 10.6927 33.4161 10.9707 33.4161 11.375V13.4976C34.5027 11.4508 36.3726 10.4274 39.0258 10.4274C40.9462 10.4274 42.5761 11.0718 43.9153 12.3605C45.2798 13.6492 46.0632 15.696 46.2653 18.5008L46.7202 25.3234ZM81.3092 25.3234C81.3598 25.9298 81.5998 26.4984 82.0294 27.029C82.459 27.5597 82.6737 27.964 82.6737 28.2419V28.3935C82.6737 28.8231 82.3958 29.0379 81.8399 29.0379H75.2826C74.7014 29.0379 74.4108 28.8231 74.4108 28.3935V28.2419C74.4108 27.9892 74.6383 27.5976 75.0931 27.0669C75.5732 26.5363 75.788 25.9677 75.7374 25.3613L75.3584 18.425C75.2573 16.3277 74.9415 14.8368 74.4108 13.9524C73.8802 13.0427 73.0969 12.5879 72.0608 12.5879C71.1764 12.5879 70.4563 12.9543 69.9003 13.6871C69.3444 14.4199 69.0412 15.3675 68.9907 16.5298C69.0917 17.0352 69.1423 17.6417 69.1423 18.3492V25.3613C69.1423 25.9677 69.3571 26.5363 69.7866 27.0669C70.2415 27.5976 70.4689 27.9892 70.4689 28.2419V28.3935C70.4689 28.8231 70.1909 29.0379 69.635 29.0379H63.0778C62.4966 29.0379 62.206 28.8231 62.206 28.3935V28.2419C62.206 27.9892 62.4334 27.5976 62.8883 27.0669C63.3431 26.5363 63.5705 25.9677 63.5705 25.3613V17.9702C63.5705 16.2519 63.2673 14.9253 62.6608 13.9903C62.0544 13.0554 61.2584 12.5879 60.2729 12.5879C59.2622 12.5879 58.4662 12.9796 57.885 13.7629C57.3038 14.5462 57.0133 15.557 57.0133 16.7952V25.3613C57.0133 25.9677 57.2786 26.5363 57.8092 27.0669C58.3651 27.5976 58.6431 27.9892 58.6431 28.2419V28.3935C58.6431 28.8231 58.3525 29.0379 57.7713 29.0379H50.7213C50.1401 29.0379 49.8495 28.8231 49.8495 28.3935V28.2419C49.8495 27.9892 50.1149 27.5976 50.6455 27.0669C51.2014 26.5363 51.4794 25.9677 51.4794 25.3613V16.5298C51.4794 16.0497 51.3278 15.6454 51.0245 15.3169C50.7213 14.9884 50.4055 14.7105 50.077 14.4831C49.7737 14.2304 49.6221 13.9777 49.6221 13.725V13.5734C49.6221 13.2954 49.8874 13.0301 50.4181 12.7774L55.1939 10.579C55.6235 10.3769 55.952 10.3642 56.1794 10.5411C56.4068 10.6927 56.5205 10.9707 56.5205 11.375V13.1565C57.7081 11.3371 59.4517 10.4274 61.7512 10.4274C64.6318 10.4274 66.7291 11.5645 68.0431 13.8387C68.5485 12.7774 69.3065 11.9435 70.3173 11.3371C71.3533 10.7306 72.5157 10.4274 73.8044 10.4274C75.7248 10.4274 77.3294 11.0718 78.6181 12.3605C79.9068 13.6239 80.6522 15.696 80.8544 18.5766L81.3092 25.3234ZM91.4705 7.20565C90.8136 7.8121 89.9291 8.11533 88.8173 8.11533C87.7055 8.11533 86.7958 7.8121 86.0883 7.20565C85.406 6.57393 85.0649 5.76532 85.0649 4.77984C85.0649 3.81962 85.406 3.03629 86.0883 2.42984C86.7958 1.79812 87.7055 1.48226 88.8173 1.48226C89.9291 1.48226 90.8136 1.79812 91.4705 2.42984C92.1528 3.03629 92.4939 3.81962 92.4939 4.77984C92.4939 5.76532 92.1528 6.57393 91.4705 7.20565ZM85.3681 29C84.8122 29 84.5343 28.7852 84.5343 28.3556V28.204C84.5343 27.9513 84.7743 27.5597 85.2544 27.029C85.7345 26.4984 85.9746 25.9298 85.9746 25.3234V16.7573C85.9746 16.1255 85.7345 15.5317 85.2544 14.9758C84.7743 14.4199 84.5343 14.0409 84.5343 13.8387V13.725C84.5343 13.4723 84.7996 13.207 85.3302 12.929L90.0681 10.579C90.5482 10.3769 90.9273 10.3642 91.2052 10.5411C91.4832 10.6927 91.6222 10.9581 91.6222 11.3371V25.3234C91.6222 25.9298 91.8875 26.4984 92.4181 27.029C92.9488 27.5597 93.2141 27.9513 93.2141 28.204V28.3556C93.2141 28.7852 92.9235 29 92.3423 29H85.3681ZM96.0601 29C95.4789 29 95.1883 28.7852 95.1883 28.3556V28.204C95.1883 27.9513 95.4284 27.5597 95.9085 27.029C96.4138 26.4984 96.6665 25.9425 96.6665 25.3613V6.71291C96.6665 6.05592 96.4138 5.4621 95.9085 4.93145C95.4284 4.40081 95.1883 4.03441 95.1883 3.83226V3.68065C95.1883 3.37742 95.441 3.12473 95.9464 2.92258L100.722 0.572582C101.228 0.370432 101.607 0.345164 101.859 0.496776C102.137 0.648389 102.276 0.901077 102.276 1.25484V25.3613C102.276 25.9425 102.542 26.4984 103.072 27.029C103.628 27.5597 103.906 27.9513 103.906 28.204V28.3556C103.906 28.7852 103.615 29 103.034 29H96.0601Z" fill="#061439"/>
<path d="M109.678 29.379C108.667 29.379 107.833 29.1137 107.176 28.5831C106.519 28.0272 106.191 27.2438 106.191 26.2331C106.191 25.2223 106.519 24.4516 107.176 23.921C107.833 23.3651 108.667 23.0871 109.678 23.0871C110.663 23.0871 111.484 23.3651 112.141 23.921C112.798 24.4516 113.127 25.2223 113.127 26.2331C113.127 27.2438 112.798 28.0272 112.141 28.5831C111.484 29.1137 110.663 29.379 109.678 29.379Z" fill="#62C8A8"/>
</svg>
