<svg width="127" height="24" viewBox="0 0 127 24" fill="none" xmlns="http://www.w3.org/2000/svg">
<path d="M10.4037 2.33C9.42368 2.33 8.65368 2.84 8.09368 3.86C7.53368 4.88 7.30368 6.14 7.40368 7.64V8.6H11.0037C11.1637 8.6 11.3037 8.66 11.4237 8.78C11.5437 8.9 11.6037 9.04 11.6037 9.2V9.77C11.6037 9.93 11.5437 10.07 11.4237 10.19C11.3037 10.29 11.1637 10.34 11.0037 10.34H7.40368V20.09C7.40368 20.45 7.53368 20.77 7.79368 21.05C8.05368 21.33 8.30368 21.57 8.54368 21.77C8.80368 21.97 8.93368 22.17 8.93368 22.37V22.49C8.93368 22.83 8.73368 23 8.33368 23H2.54368C2.12368 23 1.91368 22.83 1.91368 22.49V22.37C1.91368 22.17 2.11368 21.86 2.51368 21.44C2.91368 21.02 3.11368 20.57 3.11368 20.09V10.34H0.983679C0.563679 10.34 0.353679 10.15 0.353679 9.77V9.2C0.353679 9.04 0.41368 8.9 0.53368 8.78C0.653679 8.66 0.803679 8.6 0.983679 8.6H3.11368V7.37C3.11368 5.45 3.83368 3.91 5.27368 2.75C6.71368 1.59 8.61368 1.01 10.9737 1.01C12.9937 1.01 14.5937 1.44 15.7737 2.3C16.9737 3.14 17.5737 4.1 17.5737 5.18C17.5737 5.64 17.4137 6.03 17.0937 6.35C16.7737 6.65 16.3637 6.8 15.8637 6.8C15.2837 6.8 14.7837 6.65 14.3637 6.35C13.9437 6.03 13.6037 5.66 13.3437 5.24C13.1037 4.8 12.8637 4.36 12.6237 3.92C12.4037 3.48 12.1037 3.11 11.7237 2.81C11.3637 2.49 10.9237 2.33 10.4037 2.33ZM18.7737 20.09C18.7737 20.57 18.9837 21.02 19.4037 21.44C19.8237 21.86 20.0337 22.17 20.0337 22.37V22.49C20.0337 22.83 19.8037 23 19.3437 23H13.7937C13.3337 23 13.1037 22.83 13.1037 22.49V22.37C13.1037 22.17 13.2937 21.86 13.6737 21.44C14.0737 21.02 14.2737 20.57 14.2737 20.09V13.31C14.2737 12.81 14.0737 12.34 13.6737 11.9C13.2937 11.46 13.1037 11.16 13.1037 11V10.91C13.1037 10.71 13.3137 10.5 13.7337 10.28L17.5437 8.42C17.9237 8.26 18.2237 8.25 18.4437 8.39C18.6637 8.51 18.7737 8.72 18.7737 9.02V20.09ZM37.2422 20.09C37.2822 20.57 37.4722 21.02 37.8122 21.44C38.1522 21.86 38.3222 22.18 38.3222 22.4V22.52C38.3222 22.86 38.0922 23.03 37.6322 23.03H32.4422C31.9822 23.03 31.7522 22.86 31.7522 22.52V22.4C31.7522 22.2 31.9322 21.89 32.2922 21.47C32.6722 21.05 32.8522 20.59 32.8322 20.09L32.5322 14.54C32.3922 11.52 31.5222 10.01 29.9222 10.01C29.1222 10.01 28.4922 10.31 28.0322 10.91C27.5922 11.51 27.3722 12.31 27.3722 13.31V20.12C27.3722 20.6 27.5822 21.05 28.0022 21.47C28.4422 21.89 28.6622 22.2 28.6622 22.4V22.52C28.6622 22.86 28.4322 23.03 27.9722 23.03H22.3922C21.9322 23.03 21.7022 22.86 21.7022 22.52V22.4C21.7022 22.2 21.9122 21.89 22.3322 21.47C22.7722 21.05 22.9922 20.6 22.9922 20.12V13.13C22.9922 12.83 22.9122 12.56 22.7522 12.32C22.6122 12.08 22.4422 11.91 22.2422 11.81C22.0622 11.69 21.8922 11.55 21.7322 11.39C21.5922 11.23 21.5222 11.07 21.5222 10.91V10.79C21.5222 10.57 21.7222 10.36 22.1222 10.16L25.6922 8.42C26.0322 8.26 26.2822 8.25 26.4422 8.39C26.6222 8.51 26.7122 8.73 26.7122 9.05V10.73C27.5722 9.11 29.0522 8.3 31.1522 8.3C32.6722 8.3 33.9622 8.81 35.0222 9.83C36.1022 10.85 36.7222 12.47 36.8822 14.69L37.2422 20.09ZM64.6191 20.09C64.6591 20.57 64.8491 21.02 65.1891 21.44C65.5291 21.86 65.6991 22.18 65.6991 22.4V22.52C65.6991 22.86 65.4791 23.03 65.0391 23.03H59.8491C59.3891 23.03 59.1591 22.86 59.1591 22.52V22.4C59.1591 22.2 59.3391 21.89 59.6991 21.47C60.0791 21.05 60.2491 20.6 60.2091 20.12L59.9091 14.63C59.8291 12.97 59.5791 11.79 59.1591 11.09C58.7391 10.37 58.1191 10.01 57.2991 10.01C56.5991 10.01 56.0291 10.3 55.5891 10.88C55.1491 11.46 54.9091 12.21 54.8691 13.13C54.9491 13.53 54.9891 14.01 54.9891 14.57V20.12C54.9891 20.6 55.1591 21.05 55.4991 21.47C55.8591 21.89 56.0391 22.2 56.0391 22.4V22.52C56.0391 22.86 55.8191 23.03 55.3791 23.03H50.1891C49.7291 23.03 49.4991 22.86 49.4991 22.52V22.4C49.4991 22.2 49.6791 21.89 50.0391 21.47C50.3991 21.05 50.5791 20.6 50.5791 20.12V14.27C50.5791 12.91 50.3391 11.86 49.8591 11.12C49.3791 10.38 48.7491 10.01 47.9691 10.01C47.1691 10.01 46.5391 10.32 46.0791 10.94C45.6191 11.56 45.3891 12.36 45.3891 13.34V20.12C45.3891 20.6 45.5991 21.05 46.0191 21.47C46.4591 21.89 46.6791 22.2 46.6791 22.4V22.52C46.6791 22.86 46.4491 23.03 45.9891 23.03H40.4091C39.9491 23.03 39.7191 22.86 39.7191 22.52V22.4C39.7191 22.2 39.9291 21.89 40.3491 21.47C40.7891 21.05 41.0091 20.6 41.0091 20.12V13.13C41.0091 12.75 40.8891 12.43 40.6491 12.17C40.4091 11.91 40.1591 11.69 39.8991 11.51C39.6591 11.31 39.5391 11.11 39.5391 10.91V10.79C39.5391 10.57 39.7491 10.36 40.1691 10.16L43.9491 8.42C44.2891 8.26 44.5491 8.25 44.7291 8.39C44.9091 8.51 44.9991 8.73 44.9991 9.05V10.46C45.9391 9.02 47.3191 8.3 49.1391 8.3C51.4191 8.3 53.0791 9.2 54.1191 11C54.5191 10.16 55.1191 9.5 55.9191 9.02C56.7391 8.54 57.6591 8.3 58.6791 8.3C60.1991 8.3 61.4691 8.81 62.4891 9.83C63.5091 10.83 64.0991 12.47 64.2591 14.75L64.6191 20.09ZM72.6616 5.75C72.1416 6.23 71.4416 6.47 70.5616 6.47C69.6816 6.47 68.9616 6.23 68.4016 5.75C67.8616 5.25 67.5916 4.61 67.5916 3.83C67.5916 3.07 67.8616 2.45 68.4016 1.97C68.9616 1.47 69.6816 1.22 70.5616 1.22C71.4416 1.22 72.1416 1.47 72.6616 1.97C73.2016 2.45 73.4716 3.07 73.4716 3.83C73.4716 4.61 73.2016 5.25 72.6616 5.75ZM67.8316 23C67.3916 23 67.1716 22.83 67.1716 22.49V22.37C67.1716 22.17 67.3616 21.86 67.7416 21.44C68.1216 21.02 68.3116 20.57 68.3116 20.09V13.31C68.3116 12.81 68.1216 12.34 67.7416 11.9C67.3616 11.46 67.1716 11.16 67.1716 11V10.91C67.1716 10.71 67.3816 10.5 67.8016 10.28L71.5516 8.42C71.9316 8.26 72.2316 8.25 72.4516 8.39C72.6716 8.51 72.7816 8.72 72.7816 9.02V20.09C72.7816 20.57 72.9916 21.02 73.4116 21.44C73.8316 21.86 74.0416 22.17 74.0416 22.37V22.49C74.0416 22.83 73.8116 23 73.3516 23H67.8316ZM76.2942 23C75.8342 23 75.6042 22.83 75.6042 22.49V22.37C75.6042 22.17 75.7942 21.86 76.1742 21.44C76.5742 21.02 76.7742 20.58 76.7742 20.12V5.36C76.7742 4.84 76.5742 4.37 76.1742 3.95C75.7942 3.53 75.6042 3.24 75.6042 3.08V2.96C75.6042 2.72 75.8042 2.52 76.2042 2.36L79.9842 0.5C80.3842 0.340001 80.6842 0.320001 80.8842 0.44C81.1042 0.56 81.2142 0.76 81.2142 1.04V20.12C81.2142 20.58 81.4242 21.02 81.8442 21.44C82.2842 21.86 82.5042 22.17 82.5042 22.37V22.49C82.5042 22.83 82.2742 23 81.8142 23H76.2942ZM84.7024 23C84.2424 23 84.0124 22.83 84.0124 22.49V22.37C84.0124 22.17 84.2024 21.86 84.5824 21.44C84.9824 21.02 85.1824 20.58 85.1824 20.12V5.36C85.1824 4.84 84.9824 4.37 84.5824 3.95C84.2024 3.53 84.0124 3.24 84.0124 3.08V2.96C84.0124 2.72 84.2124 2.52 84.6124 2.36L88.3924 0.5C88.7924 0.340001 89.0924 0.320001 89.2924 0.44C89.5124 0.56 89.6224 0.76 89.6224 1.04V20.12C89.6224 20.58 89.8324 21.02 90.2524 21.44C90.6924 21.86 90.9124 22.17 90.9124 22.37V22.49C90.9124 22.83 90.6824 23 90.2224 23H84.7024Z" fill="#061439"/>
<path d="M94.1906 9.68C93.8906 9.86 93.6106 9.82 93.3506 9.56C93.1106 9.3 93.1206 9.04 93.3806 8.78C93.9606 8.2 94.3706 7.73 94.6106 7.37C94.8506 7.01 95.0006 6.61 95.0606 6.17C95.1206 5.79 95.0106 5.6 94.7306 5.6C94.1906 5.6 93.7306 5.37 93.3506 4.91C92.9706 4.45 92.7806 3.86 92.7806 3.14C92.7806 2.3 93.0206 1.63 93.5006 1.13C93.9806 0.61 94.6206 0.35 95.4206 0.35C96.2006 0.35 96.8506 0.64 97.3706 1.22C97.9106 1.78 98.1806 2.54 98.1806 3.5C98.1806 5.94 96.8506 8 94.1906 9.68Z" fill="#61C9A8"/>
<path d="M115.677 17.39C115.877 17.39 116.027 17.46 116.127 17.6C116.227 17.72 116.257 17.87 116.217 18.05L115.317 22.31C115.177 22.77 114.927 23 114.567 23H100.527C100.347 23 100.177 22.94 100.017 22.82C99.877 22.68 99.807 22.52 99.807 22.34V21.98C99.807 20.82 100.167 19.67 100.887 18.53C101.627 17.39 102.517 16.36 103.557 15.44C104.597 14.5 105.637 13.58 106.677 12.68C107.717 11.76 108.597 10.8 109.317 9.8C110.057 8.78 110.427 7.78 110.427 6.8C110.427 5.72 110.147 4.85 109.587 4.19C109.047 3.53 108.417 3.2 107.697 3.2C107.017 3.2 106.437 3.49 105.957 4.07C105.497 4.65 105.157 5.28 104.937 5.96C104.737 6.64 104.397 7.27 103.917 7.85C103.457 8.43 102.887 8.72 102.207 8.72C101.567 8.72 101.037 8.53 100.617 8.15C100.197 7.77 99.987 7.25 99.987 6.59C99.987 5.23 100.727 4.03 102.207 2.99C103.687 1.93 105.507 1.4 107.667 1.4C109.947 1.4 111.757 1.89 113.097 2.87C114.457 3.83 115.137 5.28 115.137 7.22C115.137 8.06 114.947 8.86 114.567 9.62C114.207 10.36 113.727 11.03 113.127 11.63C112.527 12.21 111.857 12.78 111.117 13.34C110.377 13.88 109.617 14.41 108.837 14.93C108.057 15.43 107.327 15.93 106.647 16.43C105.967 16.93 105.367 17.47 104.847 18.05C104.347 18.63 104.007 19.22 103.827 19.82H112.257C112.737 19.82 113.157 19.7 113.517 19.46C113.877 19.2 114.127 18.92 114.267 18.62C114.427 18.3 114.597 18.02 114.777 17.78C114.977 17.52 115.167 17.39 115.347 17.39H115.677ZM119.141 23C118.701 23 118.481 22.83 118.481 22.49V22.4C118.481 22.2 118.751 21.86 119.291 21.38C119.831 20.88 120.101 20.38 120.101 19.88V6.83C120.101 6.41 119.991 6.09 119.771 5.87C119.551 5.63 119.311 5.49 119.051 5.45C118.811 5.39 118.581 5.3 118.361 5.18C118.141 5.04 118.031 4.86 118.031 4.64V4.49C118.031 4.19 118.301 3.92 118.841 3.68L123.041 1.85C123.681 1.61 124.181 1.58 124.541 1.76C124.921 1.92 125.111 2.2 125.111 2.6C125.111 2.82 124.991 3.15 124.751 3.59C124.531 4.03 124.421 4.55 124.421 5.15V19.88C124.421 20.18 124.511 20.47 124.691 20.75C124.871 21.01 125.061 21.22 125.261 21.38C125.481 21.52 125.681 21.69 125.861 21.89C126.041 22.07 126.131 22.24 126.131 22.4V22.49C126.131 22.83 125.921 23 125.501 23H119.141Z" fill="#6153BE"/>
</svg>
