<svg width="74" height="19" viewBox="0 0 74 19" fill="none" xmlns="http://www.w3.org/2000/svg">
<path d="M7.605 2.4975C6.87 2.4975 6.2925 2.88 5.8725 3.645C5.4525 4.41 5.28 5.355 5.355 6.48V7.2H8.055C8.175 7.2 8.28 7.245 8.37 7.335C8.46 7.425 8.505 7.53 8.505 7.65V8.0775C8.505 8.1975 8.46 8.3025 8.37 8.3925C8.28 8.4675 8.175 8.505 8.055 8.505H5.355V15.8175C5.355 16.0875 5.4525 16.3275 5.6475 16.5375C5.8425 16.7475 6.03 16.9275 6.21 17.0775C6.405 17.2275 6.5025 17.3775 6.5025 17.5275V17.6175C6.5025 17.8725 6.3525 18 6.0525 18H1.71C1.395 18 1.2375 17.8725 1.2375 17.6175V17.5275C1.2375 17.3775 1.3875 17.145 1.6875 16.83C1.9875 16.515 2.1375 16.1775 2.1375 15.8175V8.505H0.54C0.225 8.505 0.0675 8.3625 0.0675 8.0775V7.65C0.0675 7.53 0.1125 7.425 0.2025 7.335C0.2925 7.245 0.405 7.2 0.54 7.2H2.1375V6.2775C2.1375 4.8375 2.6775 3.6825 3.7575 2.8125C4.8375 1.9425 6.2625 1.5075 8.0325 1.5075C9.5475 1.5075 10.7475 1.83 11.6325 2.475C12.5325 3.105 12.9825 3.825 12.9825 4.635C12.9825 4.98 12.8625 5.2725 12.6225 5.5125C12.3825 5.7375 12.075 5.85 11.7 5.85C11.265 5.85 10.89 5.7375 10.575 5.5125C10.26 5.2725 10.005 4.995 9.81 4.68C9.63 4.35 9.45 4.02 9.27 3.69C9.105 3.36 8.88 3.0825 8.595 2.8575C8.325 2.6175 7.995 2.4975 7.605 2.4975ZM13.8825 15.8175C13.8825 16.1775 14.04 16.515 14.355 16.83C14.67 17.145 14.8275 17.3775 14.8275 17.5275V17.6175C14.8275 17.8725 14.655 18 14.31 18H10.1475C9.8025 18 9.63 17.8725 9.63 17.6175V17.5275C9.63 17.3775 9.7725 17.145 10.0575 16.83C10.3575 16.515 10.5075 16.1775 10.5075 15.8175V10.7325C10.5075 10.3575 10.3575 10.005 10.0575 9.675C9.7725 9.345 9.63 9.12 9.63 9V8.9325C9.63 8.7825 9.7875 8.625 10.1025 8.46L12.96 7.065C13.245 6.945 13.47 6.9375 13.635 7.0425C13.8 7.1325 13.8825 7.29 13.8825 7.515V15.8175ZM27.7339 15.8175C27.7639 16.1775 27.9064 16.515 28.1614 16.83C28.4164 17.145 28.5439 17.385 28.5439 17.55V17.64C28.5439 17.895 28.3714 18.0225 28.0264 18.0225H24.1339C23.7889 18.0225 23.6164 17.895 23.6164 17.64V17.55C23.6164 17.4 23.7514 17.1675 24.0214 16.8525C24.3064 16.5375 24.4414 16.1925 24.4264 15.8175L24.2014 11.655C24.0964 9.39 23.4439 8.2575 22.2439 8.2575C21.6439 8.2575 21.1714 8.4825 20.8264 8.9325C20.4964 9.3825 20.3314 9.9825 20.3314 10.7325V15.84C20.3314 16.2 20.4889 16.5375 20.8039 16.8525C21.1339 17.1675 21.2989 17.4 21.2989 17.55V17.64C21.2989 17.895 21.1264 18.0225 20.7814 18.0225H16.5964C16.2514 18.0225 16.0789 17.895 16.0789 17.64V17.55C16.0789 17.4 16.2364 17.1675 16.5514 16.8525C16.8814 16.5375 17.0464 16.2 17.0464 15.84V10.5975C17.0464 10.3725 16.9864 10.17 16.8664 9.99C16.7614 9.81 16.6339 9.6825 16.4839 9.6075C16.3489 9.5175 16.2214 9.4125 16.1014 9.2925C15.9964 9.1725 15.9439 9.0525 15.9439 8.9325V8.8425C15.9439 8.6775 16.0939 8.52 16.3939 8.37L19.0714 7.065C19.3264 6.945 19.5139 6.9375 19.6339 7.0425C19.7689 7.1325 19.8364 7.2975 19.8364 7.5375V8.7975C20.4814 7.5825 21.5914 6.975 23.1664 6.975C24.3064 6.975 25.2739 7.3575 26.0689 8.1225C26.8789 8.8875 27.3439 10.1025 27.4639 11.7675L27.7339 15.8175ZM48.2665 15.8175C48.2965 16.1775 48.439 16.515 48.694 16.83C48.949 17.145 49.0765 17.385 49.0765 17.55V17.64C49.0765 17.895 48.9115 18.0225 48.5815 18.0225H44.689C44.344 18.0225 44.1715 17.895 44.1715 17.64V17.55C44.1715 17.4 44.3065 17.1675 44.5765 16.8525C44.8615 16.5375 44.989 16.2 44.959 15.84L44.734 11.7225C44.674 10.4775 44.4865 9.5925 44.1715 9.0675C43.8565 8.5275 43.3915 8.2575 42.7765 8.2575C42.2515 8.2575 41.824 8.475 41.494 8.91C41.164 9.345 40.984 9.9075 40.954 10.5975C41.014 10.8975 41.044 11.2575 41.044 11.6775V15.84C41.044 16.2 41.1715 16.5375 41.4265 16.8525C41.6965 17.1675 41.8315 17.4 41.8315 17.55V17.64C41.8315 17.895 41.6665 18.0225 41.3365 18.0225H37.444C37.099 18.0225 36.9265 17.895 36.9265 17.64V17.55C36.9265 17.4 37.0615 17.1675 37.3315 16.8525C37.6015 16.5375 37.7365 16.2 37.7365 15.84V11.4525C37.7365 10.4325 37.5565 9.645 37.1965 9.09C36.8365 8.535 36.364 8.2575 35.779 8.2575C35.179 8.2575 34.7065 8.49 34.3615 8.955C34.0165 9.42 33.844 10.02 33.844 10.755V15.84C33.844 16.2 34.0015 16.5375 34.3165 16.8525C34.6465 17.1675 34.8115 17.4 34.8115 17.55V17.64C34.8115 17.895 34.639 18.0225 34.294 18.0225H30.109C29.764 18.0225 29.5915 17.895 29.5915 17.64V17.55C29.5915 17.4 29.749 17.1675 30.064 16.8525C30.394 16.5375 30.559 16.2 30.559 15.84V10.5975C30.559 10.3125 30.469 10.0725 30.289 9.8775C30.109 9.6825 29.9215 9.5175 29.7265 9.3825C29.5465 9.2325 29.4565 9.0825 29.4565 8.9325V8.8425C29.4565 8.6775 29.614 8.52 29.929 8.37L32.764 7.065C33.019 6.945 33.214 6.9375 33.349 7.0425C33.484 7.1325 33.5515 7.2975 33.5515 7.5375V8.595C34.2565 7.515 35.2915 6.975 36.6565 6.975C38.3665 6.975 39.6115 7.65 40.3915 9C40.6915 8.37 41.1415 7.875 41.7415 7.515C42.3565 7.155 43.0465 6.975 43.8115 6.975C44.9515 6.975 45.904 7.3575 46.669 8.1225C47.434 8.8725 47.8765 10.1025 47.9965 11.8125L48.2665 15.8175ZM54.2985 5.0625C53.9085 5.4225 53.3835 5.6025 52.7235 5.6025C52.0635 5.6025 51.5235 5.4225 51.1035 5.0625C50.6985 4.6875 50.496 4.2075 50.496 3.6225C50.496 3.0525 50.6985 2.5875 51.1035 2.2275C51.5235 1.8525 52.0635 1.665 52.7235 1.665C53.3835 1.665 53.9085 1.8525 54.2985 2.2275C54.7035 2.5875 54.906 3.0525 54.906 3.6225C54.906 4.2075 54.7035 4.6875 54.2985 5.0625ZM50.676 18C50.346 18 50.181 17.8725 50.181 17.6175V17.5275C50.181 17.3775 50.3235 17.145 50.6085 16.83C50.8935 16.515 51.036 16.1775 51.036 15.8175V10.7325C51.036 10.3575 50.8935 10.005 50.6085 9.675C50.3235 9.345 50.181 9.12 50.181 9V8.9325C50.181 8.7825 50.3385 8.625 50.6535 8.46L53.466 7.065C53.751 6.945 53.976 6.9375 54.141 7.0425C54.306 7.1325 54.3885 7.29 54.3885 7.515V15.8175C54.3885 16.1775 54.546 16.515 54.861 16.83C55.176 17.145 55.3335 17.3775 55.3335 17.5275V17.6175C55.3335 17.8725 55.161 18 54.816 18H50.676ZM57.0229 18C56.6779 18 56.5054 17.8725 56.5054 17.6175V17.5275C56.5054 17.3775 56.6479 17.145 56.9329 16.83C57.2329 16.515 57.3829 16.185 57.3829 15.84V4.77C57.3829 4.38 57.2329 4.0275 56.9329 3.7125C56.6479 3.3975 56.5054 3.18 56.5054 3.06V2.97C56.5054 2.79 56.6554 2.64 56.9554 2.52L59.7904 1.125C60.0904 1.005 60.3154 0.990001 60.4654 1.08C60.6304 1.17 60.7129 1.32 60.7129 1.53V15.84C60.7129 16.185 60.8704 16.515 61.1854 16.83C61.5154 17.145 61.6804 17.3775 61.6804 17.5275V17.6175C61.6804 17.8725 61.5079 18 61.1629 18H57.0229ZM63.3291 18C62.9841 18 62.8116 17.8725 62.8116 17.6175V17.5275C62.8116 17.3775 62.9541 17.145 63.2391 16.83C63.5391 16.515 63.6891 16.185 63.6891 15.84V4.77C63.6891 4.38 63.5391 4.0275 63.2391 3.7125C62.9541 3.3975 62.8116 3.18 62.8116 3.06V2.97C62.8116 2.79 62.9616 2.64 63.2616 2.52L66.0966 1.125C66.3966 1.005 66.6216 0.990001 66.7716 1.08C66.9366 1.17 67.0191 1.32 67.0191 1.53V15.84C67.0191 16.185 67.1766 16.515 67.4916 16.83C67.8216 17.145 67.9866 17.3775 67.9866 17.5275V17.6175C67.9866 17.8725 67.8141 18 67.4691 18H63.3291Z" fill="#061439"/>
<path d="M71.4127 18.225C70.8127 18.225 70.3177 18.0675 69.9277 17.7525C69.5377 17.4225 69.3427 16.9575 69.3427 16.3575C69.3427 15.7575 69.5377 15.3 69.9277 14.985C70.3177 14.655 70.8127 14.49 71.4127 14.49C71.9977 14.49 72.4852 14.655 72.8752 14.985C73.2652 15.3 73.4602 15.7575 73.4602 16.3575C73.4602 16.9575 73.2652 17.4225 72.8752 17.7525C72.4852 18.0675 71.9977 18.225 71.4127 18.225Z" fill="#4ABE9A"/>
</svg>
