<svg width="151" height="56" viewBox="0 0 151 56" fill="none" xmlns="http://www.w3.org/2000/svg">
<g clip-path="url(#clip0_4128_210)">
<path d="M26.706 51.9592C26.4601 51.9557 26.2183 51.8951 25.9995 51.7821L7.88235 41.5142C7.66284 41.39 7.47989 41.2097 7.35203 40.9916C7.22418 40.7734 7.15597 40.5252 7.1543 40.2721V8.71417C7.15381 8.52768 7.19 8.34293 7.2608 8.17055C7.3316 7.99817 7.43561 7.84155 7.56684 7.70971C7.69807 7.57786 7.85395 7.47338 8.0255 7.40228C8.19705 7.33119 8.38089 7.29487 8.56646 7.29542H44.8232C45.0088 7.29487 45.1926 7.3312 45.3642 7.40232C45.5358 7.47345 45.6917 7.57796 45.8229 7.70985C45.9542 7.84175 46.0582 7.99841 46.1289 8.17084C46.1997 8.34327 46.2359 8.52806 46.2353 8.71458V40.2721C46.2336 40.5252 46.1653 40.7733 46.0375 40.9913C45.9096 41.2094 45.7267 41.3896 45.5073 41.5137L27.3897 51.7821C27.1691 51.915 26.9485 51.9592 26.7056 51.9592H26.706ZM10.001 39.4517L26.7056 48.8987L43.4106 39.4517V10.1554H10.001V39.4512V39.4517Z" fill="#EFBE97"/>
<path d="M26.7061 37.6763C26.4601 37.6728 26.2183 37.612 25.9996 37.4988L20.2622 34.2388C20.0428 34.1147 19.8598 33.9345 19.732 33.7164C19.6041 33.4984 19.5359 33.2502 19.5342 32.9971V27.0088H22.3805V32.1542L26.7061 34.5938L31.7593 31.733L33.1495 34.2163L27.4122 37.4767C27.1692 37.6096 26.9486 37.6763 26.7061 37.6763Z" fill="#EFBE97"/>
<path d="M26.7052 44.817C26.4594 44.8136 26.2178 44.753 25.9992 44.6399L14.0601 37.8758C13.8406 37.7516 13.6577 37.5714 13.5299 37.3534C13.402 37.1353 13.3338 36.8872 13.332 36.6341V21.1549C13.3314 20.9684 13.3675 20.7835 13.4383 20.6111C13.509 20.4386 13.613 20.2819 13.7443 20.1499C13.8755 20.018 14.0314 19.9135 14.203 19.8423C14.3746 19.7712 14.5586 19.7348 14.7442 19.7354H32.2656V22.5962H16.1568V35.8133L26.6609 41.7566L37.165 35.8133V29.6258H40.0556V36.6341C40.0539 36.8872 39.9857 37.1353 39.8578 37.3534C39.73 37.5714 39.547 37.7516 39.3276 37.8758L27.3893 44.6399C27.1684 44.7729 26.9478 44.817 26.7052 44.817V44.817Z" fill="#EFBE97"/>
<path d="M40.0562 24.171H37.2095V16.3647H18.3643V13.5039H38.622C38.8076 13.5034 38.9915 13.5397 39.1631 13.6108C39.3347 13.6819 39.4906 13.7865 39.6218 13.9183C39.753 14.0502 39.857 14.2069 39.9278 14.3793C39.9986 14.5518 40.0347 14.7366 40.0342 14.9231V24.171H40.0562ZM59.7368 27.1277C59.7368 21.0193 64.2548 16.316 70.4627 16.316C74.2004 16.316 77.5156 18.1781 79.303 21.1177L75.2403 23.5022C74.3302 21.9014 72.5428 20.9543 70.4627 20.9543C66.8225 20.9543 64.4497 23.4043 64.4497 27.1277C64.4497 30.8514 66.8225 33.301 70.4627 33.301C72.5428 33.301 74.363 32.3539 75.2403 30.7535L79.303 33.1381C77.548 36.0777 74.2328 37.9393 70.4627 37.9393C64.2548 37.9068 59.7368 33.236 59.7368 27.1277V27.1277ZM119.931 33.2685V37.8739H105.988V16.3156H119.931V20.9214H110.895V24.6127H118.858V29.2835H110.895V33.2356H119.931V33.2685V33.2685ZM96.6921 30.0018C99.0645 28.7935 100.657 26.3764 100.657 23.7306C100.657 19.6147 97.3746 16.316 93.3118 16.316H84.7311V37.9064H89.6388V30.8189H91.9793L96.0093 37.9064H101.275L96.6921 30.0022V30.0018ZM93.2791 26.5068H89.6065V20.9543H93.2791C94.6116 20.9543 95.717 22.1627 95.717 23.7306C95.717 25.2985 94.6116 26.5068 93.2791 26.5068V26.5068ZM133.159 16.316H125.262V37.841H133.159C139.042 37.841 143.56 33.1702 143.56 27.0622C143.56 20.9868 139.075 16.316 133.159 16.316V16.316ZM133.159 33.2685H130.169V20.9543H133.159C136.507 20.9543 138.847 23.4039 138.847 27.0947C138.847 30.786 136.54 33.2685 133.159 33.2685V33.2685Z" fill="#EFBE97"/>
</g>
<defs>
<clipPath id="clip0_4128_210">
<rect width="136.406" height="45" fill="white" transform="translate(7.1543 7.1543)"/>
</clipPath>
</defs>
</svg>
