<svg width="161" height="56" viewBox="0 0 161 56" fill="none" xmlns="http://www.w3.org/2000/svg">
<path d="M141.054 27.5366C141.819 27.5366 142.506 28.0066 142.779 28.7175L146.43 38.1824H146.491L149.73 28.7233C149.952 28.0735 150.534 27.6194 151.208 27.5483L151.394 27.5385C152.632 27.5385 153.481 28.7762 153.033 29.9238L147.012 45.3208C145.97 47.9744 144.683 49.5 141.436 49.5C141.335 49.5 141.235 49.498 141.135 49.4941C140.263 49.4647 139.591 48.7225 139.673 47.8589L139.689 47.6983C139.764 46.9188 140.423 46.3254 141.209 46.3254H141.221C142.785 46.3254 143.214 45.5636 143.826 44.038L144.561 42.1775L139.357 30.1021C138.856 28.9406 139.651 27.6538 140.883 27.5441L141.054 27.5366ZM129.795 27.1116C133.9 27.1116 136.902 29.7652 136.902 35.0431V35.0509C136.902 35.5817 136.467 36.0164 135.93 36.0164H125.69C125.843 38.0904 127.744 39.616 129.888 39.616C131.2 39.616 132.201 39.2419 132.966 38.6074C133.474 38.1837 134.204 38.1715 134.757 38.5193L134.903 38.6231C135.676 39.2399 135.702 40.4228 134.929 41.0397C133.619 42.0835 131.957 42.6064 129.917 42.6064C125.383 42.6064 122.014 39.708 122.014 34.9511C122.014 30.2235 125.354 27.1116 129.795 27.1116V27.1116ZM93.4926 27.1096C97.936 27.1096 101.488 30.1902 101.488 34.7963C101.488 39.4025 97.9341 42.6045 93.4926 42.6045C89.0512 42.6045 85.4969 39.4025 85.4969 34.7963C85.4969 30.1902 89.0492 27.1096 93.4926 27.1096V27.1096ZM39.5672 19.9987C39.6989 19.9987 39.8288 19.9987 39.9606 20.03H44.5849C46.1585 20.03 47.6672 20.3179 49.0775 20.8937C50.4544 21.4694 51.6995 22.3018 52.7498 23.2927C53.8002 24.3483 54.6538 25.5331 55.2105 26.8766C55.8006 28.2514 56.0956 29.7554 56.0956 31.2614C56.0956 32.7968 55.8006 34.2382 55.2105 35.613C54.6519 36.9878 53.8002 38.1413 52.7498 39.2282C51.7014 40.2211 50.4544 41.0201 49.0775 41.5959C47.6672 42.1717 46.1585 42.4909 44.5849 42.4909H39.4688C38.1254 42.4263 37.075 41.402 37.075 40.0586V22.431C37.075 21.0856 38.1903 19.9987 39.5672 19.9987V19.9987ZM9.5481 19.9967C10.8561 19.9967 11.9085 21.0895 11.9104 22.4055V40.1095C11.9104 41.3942 10.8561 42.487 9.5481 42.487C8.24007 42.487 7.1543 41.3942 7.1543 40.1095V22.4055C7.1543 21.0895 8.24007 19.9967 9.5481 19.9967V19.9967ZM30.7147 6.50139C31.352 6.47985 31.9972 6.70898 32.485 7.19466L39.5031 14.1822C40.4375 15.1105 40.4375 16.6185 39.5031 17.5487C38.5708 18.479 37.0562 18.479 36.1219 17.5487L33.3111 14.7482V40.0762C33.3111 41.3922 32.2411 42.485 30.9114 42.485C30.1325 42.485 29.4519 42.1325 28.9661 41.5215C28.9326 41.4901 28.9326 41.4569 28.9326 41.4255L20.3409 29.1209V40.0762C20.3409 41.3922 19.2709 42.485 17.9097 42.485C16.58 42.485 15.4785 41.3942 15.4785 40.0762V22.4055C15.4785 21.0895 16.58 19.9967 17.9097 19.9967C18.8165 19.9967 19.5954 20.4785 20.0163 21.2168L28.4783 33.3941V14.3918L25.3075 17.5487C24.3752 18.479 22.8606 18.479 21.9263 17.5487C20.992 16.6204 20.992 15.1125 21.9263 14.1822L28.9444 7.19466C29.4322 6.70898 30.0774 6.47985 30.7147 6.50139V6.50139ZM113.158 27.1096C116.988 27.1096 118.581 30.0374 118.581 33.0279V40.6206C118.581 41.4823 117.881 42.1795 117.016 42.1795H116.471C115.605 42.1795 114.905 41.4823 114.905 40.6206V34.0659C114.905 32.3268 114.506 30.1608 112.147 30.1608C109.819 30.1608 108.717 32.174 108.717 34.1266V40.6206C108.717 41.4823 108.017 42.1795 107.151 42.1795H106.606C105.741 42.1795 105.041 41.4823 105.041 40.6206V29.0974C105.041 28.2337 105.743 27.5366 106.606 27.5366H106.966C107.832 27.5366 108.532 28.2337 108.532 29.0954V29.8847H108.593C109.236 28.4198 110.983 27.1096 113.158 27.1096V27.1096ZM76.6376 27.1077C80.4713 27.1096 82.0645 30.0374 82.0645 33.0259V40.3464C82.0645 41.2975 81.3362 42.0804 80.4027 42.1692L80.2254 42.1775C79.2104 42.1775 78.3863 41.3589 78.3863 40.3464V34.0619C78.3863 32.3229 77.9889 30.1569 75.6286 30.1569C73.3312 30.1569 72.3811 32.2915 72.3811 34.1834V40.3445C72.3811 41.2956 71.6528 42.0784 70.7193 42.1672L70.542 42.1756C69.527 42.1756 68.7029 41.357 68.7029 40.3445V33.3295C68.7029 31.5297 67.8453 30.1569 65.9766 30.1569C63.7717 30.1569 62.7606 32.1701 62.7606 34.1227V40.3445C62.7606 41.2956 62.0323 42.0784 61.0988 42.1672L60.9215 42.1756C59.9066 42.1756 59.0824 41.357 59.0824 40.3445V29.2717C59.0824 28.3721 59.7687 27.6308 60.6503 27.5416L60.8291 27.5326C61.7929 27.5326 62.5757 28.3101 62.5757 29.2717V29.8827H62.6367C63.2799 28.4492 64.8417 27.1077 67.2021 27.1077C69.47 27.1077 70.9708 28.2357 71.7969 29.8827C72.7765 28.1143 74.4327 27.1077 76.6376 27.1077V27.1077ZM93.4926 30.0962C90.5815 30.0962 89.2341 32.505 89.2341 34.7944C89.2341 37.0838 90.5815 39.5533 93.4926 39.5533C96.4038 39.5533 97.7511 37.0818 97.7511 34.7944C97.7511 32.507 96.4038 30.0962 93.4926 30.0962ZM44.4885 24.7302H41.8292V37.7516H44.4885C46.3631 37.7516 48.0665 37.1053 49.3627 35.846C50.657 34.6201 51.3395 33.0044 51.3395 31.2575C51.3395 29.5126 50.6589 27.8969 49.3627 26.669C48.0684 25.4411 46.3631 24.7302 44.4885 24.7302V24.7302ZM129.764 29.8533C127.588 29.8533 125.841 31.3476 125.688 33.3922H133.225C133.225 31.5004 132.153 29.8533 129.764 29.8533V29.8533Z" fill="#EFBE97"/>
</svg>
