<svg width="61" height="56" viewBox="0 0 61 56" fill="none" xmlns="http://www.w3.org/2000/svg">
<path d="M40.4152 21.8325C37.2961 21.8325 34.7581 19.3431 34.7581 16.2841C34.7581 13.2251 37.2969 10.7358 40.4152 10.7358C43.5361 10.7358 46.0767 13.2251 46.0767 16.2841C46.0767 19.3431 43.5361 21.8325 40.4152 21.8325ZM50.0372 45.1925H45.2479C40.3966 45.1925 35.5012 41.7345 35.5012 34.011V26.0105H45.3929V32.5752C45.3929 34.8779 46.1528 35.2998 47.6478 35.2998H50.0363L50.0372 45.1925ZM10.2764 45.2181H20.2345V37.7732C20.2345 35.782 20.8652 35.2671 23.3032 35.2671H32.1609V25.9831H20.2345V23.3628C20.2345 20.8594 20.9227 20.0146 22.9609 20.0146H32.1485V10.7358H21.1394C14.0333 10.7358 10.2764 14.3981 10.2764 21.3265V45.2181Z" fill="#EFBE97"/>
</svg>
